inDegrees=yes
name=ik_S49_A09_T01
DataType=double
version=3
OpenSimVersion=4.3-2021-08-27-4bc7ad9
endheader
time	pelvis_tilt	pelvis_list	pelvis_rotation	pelvis_tx	pelvis_ty	pelvis_tz	hip_flexion_r	hip_adduction_r	hip_rotation_r	knee_angle_r	knee_angle_r_beta	ankle_angle_r	subtalar_angle_r	mtp_angle_r	hip_flexion_l	hip_adduction_l	hip_rotation_l	knee_angle_l	knee_angle_l_beta	ankle_angle_l	subtalar_angle_l	mtp_angle_l	lumbar_extension	lumbar_bending	lumbar_rotation	arm_flex_r	arm_add_r	arm_rot_r	elbow_flex_r	pro_sup_r	wrist_flex_r	wrist_dev_r	arm_flex_l	arm_add_l	arm_rot_l	elbow_flex_l	pro_sup_l	wrist_flex_l	wrist_dev_l
6.619999999999947	-9.726335782438488	-6.059292890168995	28.84213603161737	0	0.9399999999999999	0	42.79747629922436	-10.40121155021381	-10.21987404618826	54.85781542456121	0.9574494996099241	0	0	0	42.79747629922436	-10.40121155021381	-10.21987404618826	54.85781542456121	0.9574494996099241	0	0	0	-10.19726965391947	-2.687875238390867	-0.2748918932728292	79.97886508537022	2.413874263966312	14.06744341203692	32.67452802593552	115.4790252407496	0	0	75.21666332891382	-15.93614827864787	13.03537581132406	31.866399590646	107.5694223815038	0	0
6.639999999999946	-9.79680972917795	-6.052386595362631	29.06577679247739	0	0.9399999999999999	0	42.79844402903851	-10.40059512712706	-10.21965750501857	54.85785717953694	0.9574502283717296	0	0	0	42.79844402903851	-10.40059512712706	-10.21965750501857	54.85785717953694	0.9574502283717296	0	0	0	-10.27060784428179	-2.613468642751076	-0.4100860771437896	80.10543980051979	2.49033859699814	13.84242845212021	32.50027958622033	115.3203133689928	0	0	75.2789828182235	-17.15570249806083	12.06753250381683	32.44212659085314	106.8124929710096	0	0
6.659999999999946	-9.942296270240524	-6.049549621386866	29.31429863654738	0	0.9399999999999999	0	42.79898752305486	-10.40025009724123	-10.21953614450173	54.85788068766202	0.9574506386659134	0	0	0	42.79898752305486	-10.40025009724123	-10.21953614450173	54.85788068766202	0.9574506386659134	0	0	0	-10.40722322664339	-2.51516773836636	-0.4965635962352241	80.35968484156999	2.425351437671069	13.78121814881743	32.4721977200733	115.1834268000141	0	0	75.61122291966417	-18.2761885320489	11.1765007212239	32.52166682394206	106.2665052817412	0	0
6.679999999999946	-9.983855754548751	-6.042230142602756	29.50160950555455	0	0.9399999999999999	0	42.79964910990324	-10.39982995557382	-10.2193883650421	54.85790927919503	0.9574511376823025	0	0	0	42.79964910990324	-10.39982995557382	-10.2193883650421	54.85790927919503	0.9574511376823025	0	0	0	-10.45447720411069	-2.453654532618545	-0.6359249093117346	80.40838272879728	2.534326527623398	13.66453885663661	32.40533107964131	115.3506638401277	0	0	75.89280129061001	-19.50479039068886	10.48456557076666	32.1766521275829	105.570758197303	0	0
6.699999999999945	-10.07897915005429	-6.027684659243534	29.73090629347227	0	0.9399999999999999	0	42.800394786866	-10.39935671838762	-10.21922185159706	54.85794150361951	0.9574517001046093	0	0	0	42.800394786866	-10.39935671838762	-10.21922185159706	54.85794150361951	0.9574517001046093	0	0	0	-10.54482853921202	-2.360206666659115	-0.7646067670914198	80.54177140965093	2.525316811990768	13.52713000031712	32.48180318993467	115.0116574697399	0	0	76.39562284258533	-20.63027023183218	9.771755174642227	31.27022651379735	104.6522076815443	0	0
6.719999999999945	-10.16517031104714	-6.006051574797693	29.98060141043221	0	0.9399999999999999	0	42.8011766524652	-10.3988613040836	-10.21904741442725	54.85797531752821	0.957452290268649	0	0	0	42.8011766524652	-10.3988613040836	-10.21904741442725	54.85797531752821	0.957452290268649	0	0	0	-10.6247945610677	-2.255599864483437	-0.9253651396805169	80.66196334532276	2.492106015560571	13.37553333333716	32.58467444148096	115.0586600008371	0	0	77.00832476330446	-21.6881470601557	8.950796664132383	29.83603868404446	103.3873145532562	0	0
6.739999999999944	-10.24577553891837	-5.991219011701867	30.2201809087343	0	0.9399999999999999	0	42.80202401551863	-10.39832469717364	-10.21885840769129	54.85801195649066	0.9574529297391784	0	0	0	42.80202401551863	-10.39832469717364	-10.21885840769129	54.85801195649066	0.9574529297391784	0	0	0	-10.70415982936986	-2.155589895560456	-1.095170911656478	80.75582342630747	2.445419715202736	13.22086470104293	32.72028681806739	115.1285208140008	0	0	77.79689442877645	-22.73004441967205	8.108197032712948	28.0219639889927	102.901717662941	0	0
6.759999999999944	-10.32870260965378	-5.968437487237746	30.45003420037976	0	0.9399999999999999	0	42.80330631795	-10.39751206202983	-10.21857219259066	54.85806731063836	0.9574538958513104	0	0	0	42.80330631795	-10.39751206202983	-10.21857219259066	54.85806731063836	0.9574538958513104	0	0	0	-10.78121035254442	-2.049072384909712	-1.259040326420961	80.86912528150046	2.340070758000462	13.31875897257637	32.81780786408974	114.9935314079621	0	0	78.6084176316551	-23.65018156083272	7.171748033353984	25.98199401584256	103.4664430871557	0	0
6.779999999999943	-10.39657155632231	-5.937121507669676	30.53925664061584	0	0.9399999999999999	0	42.80456999648017	-10.39671414736088	-10.21829074582124	54.85812198365129	0.957454850075398	0	0	0	42.80456999648017	-10.39671414736088	-10.21829074582124	54.85812198365129	0.957454850075398	0	0	0	-10.83557873286272	-1.958911773324269	-1.359420462833587	80.8860606034801	2.307330861410326	13.37356402148878	32.97989434745223	114.976190511888	0	0	78.79676691225509	-23.97467413668001	6.936536318676611	24.29550403022535	103.6823058560811	0	0
6.799999999999943	-10.50489589241207	-5.903045124020614	30.69257158289858	0	0.9399999999999999	0	42.80578050375914	-10.39595016629017	-10.21802116023359	54.85817431701876	0.9574557634649689	0	0	0	42.80578050375914	-10.39595016629017	-10.21802116023359	54.85817431701876	0.9574557634649689	0	0	0	-10.93398814614252	-1.815346825642535	-1.579148395522501	80.8961068687333	2.236532831222787	13.77763533913197	33.20825356571508	114.7785528024112	0	0	79.55974440933691	-24.83862221216071	6.084937706744437	22.27137255491083	104.9312752499331	0	0
6.819999999999943	-10.494179598461	-5.901088339259631	30.8957482077846	0	0.9399999999999999	0	42.80690563481503	-10.39524106063739	-10.21777076749658	54.85822297344679	0.9574566126798404	0	0	0	42.80690563481503	-10.39524106063739	-10.21777076749658	54.85822297344679	0.9574566126798404	0	0	0	-10.94223748610824	-1.770716204850503	-1.774147233479764	80.87018000041935	2.24837691340902	13.7912289951533	33.33845463188864	114.818271315382	0	0	80.7493455391505	-25.95320130206567	6.287701837956407	19.96206955321354	105.3950701688539	0	0
6.839999999999942	-10.5300191528188	-5.882082104008341	30.93582042483989	0	0.9399999999999999	0	42.80767017355133	-10.39476335259369	-10.21760155829126	54.85825627476209	0.9574571938974376	0	0	0	42.80767017355133	-10.39476335259369	-10.21760155829126	54.85825627476209	0.9574571938974376	0	0	0	-10.97509341451277	-1.704380891178006	-1.891107034084823	80.86190735733045	2.275657311721958	13.98108634820959	33.48199986237136	114.7833554108733	0	0	80.82771654088144	-26.23832329724338	6.152752832556228	18.49793322363741	105.5636005670745	0	0
6.859999999999942	-10.58504061990381	-5.908324273961832	30.99328802243245	0	0.9399999999999999	0	42.80874047182871	-10.39409325698379	-10.21736432464294	54.85830276827031	0.9574580053622368	0	0	0	42.80874047182871	-10.39409325698379	-10.21736432464294	54.85830276827031	0.9574580053622368	0	0	0	-11.04878594529522	-1.663352058552471	-2.019590123432669	80.93781588459736	2.280451048931411	14.07010082853238	33.68861592514372	114.7709099657875	0	0	81.49624885830607	-26.76380720719909	6.698178115533745	16.93463225977609	105.5078170870401	0	0
6.879999999999941	-10.63801487813719	-5.940228745638113	30.98346179223335	0	0.9399999999999999	0	42.810016041536	-10.39329375566013	-10.21708132684521	54.858358065491	0.957458970480805	0	0	0	42.810016041536	-10.39329375566013	-10.21708132684521	54.858358065491	0.957458970480805	0	0	0	-11.11927014871926	-1.64077305973929	-2.097781508601522	81.07146674767982	2.356814004238829	14.09928764405728	33.68412809465816	114.77320210396	0	0	82.06914834313363	-27.17967894692434	7.417954097865527	15.67893370781628	105.641250565278	0	0
6.899999999999941	-10.65125570197019	-5.967773817508892	30.90021999843998	0	0.9399999999999999	0	42.81089763077907	-10.39274331922863	-10.21688620055896	54.85839638869535	0.9574596393469008	0	0	0	42.81089763077907	-10.39274331922863	-10.21688620055896	54.85839638869535	0.9574596393469008	0	0	0	-11.13938673258929	-1.665065232461423	-2.060245090100291	80.95530657944214	2.289077997214088	14.20706435737943	33.97233601717377	114.5530007983985	0	0	82.87778622698022	-27.44445132143538	9.235954775176484	14.23507726982746	105.3792654239167	0	0
6.91999999999994	-10.69814750360639	-6.008992157887639	30.86234929082775	0	0.9399999999999999	0	42.81140102098522	-10.39243091025399	-10.21677520217623	54.85841837170246	0.9574600230227545	0	0	0	42.81140102098522	-10.39243091025399	-10.21677520217623	54.85841837170246	0.9574600230227545	0	0	0	-11.20242335765059	-1.671781404724094	-2.075227856748212	80.99340988067242	2.283156375336247	14.25827203431514	34.12093492138	114.4640319737203	0	0	83.01879001948025	-27.48144585202868	9.248641082017825	14.22247436096757	105.3422089976498	0	0
6.93999999999994	-10.72410006959293	-6.068612553674742	30.74076165638245	0	0.9399999999999999	0	42.81259994798123	-10.39168042196524	-10.21650930284411	54.85847028068498	0.9574609290054108	0	0	0	42.81259994798123	-10.39168042196524	-10.21650930284411	54.85847028068498	0.9574609290054108	0	0	0	-11.24752276237318	-1.726023982842305	-2.001293487248637	80.8005078648992	2.222850313781596	14.17674370856839	34.5123873176202	114.3845299796996	0	0	83.59095862172914	-27.45649609685794	11.12329643180742	12.92336419614179	104.9563629905105	0	0
6.95999999999994	-10.75912238611437	-6.139418715476109	30.63635550029548	0	0.9399999999999999	0	42.81360784821139	-10.39105084901629	-10.21628604013715	54.85851396482381	0.9574616914374643	0	0	0	42.81360784821139	-10.39105084901629	-10.21628604013715	54.85851396482381	0.9574616914374643	0	0	0	-11.30759335543278	-1.785510678339332	-1.934556175311443	80.92797244671621	2.264382510670213	14.0994901195956	34.55015697230424	114.2746435854877	0	0	83.83736003115814	-27.24585594863049	12.23839556033831	12.718879193496	103.9968236512928	0	0
6.979999999999939	-10.81385439727496	-6.200309165867705	30.49489089355181	0	0.9399999999999999	0	42.8145739863272	-10.39044880927667	-10.21607232635326	54.85855589378599	0.9574624232359062	0	0	0	42.8145739863272	-10.39044880927667	-10.21607232635326	54.85855589378599	0.9574624232359062	0	0	0	-11.37687133460216	-1.827855255015292	-1.852638583970517	80.83946575154513	2.266611507731572	14.15744655371513	34.80996255474165	114.1336568059984	0	0	83.94781845499465	-26.92919287376564	13.26999647035275	10.94745118021542	106.028643768092	0	0
6.999999999999939	-10.86433570487926	-6.27875856815137	30.37856951963641	0	0.9399999999999999	0	42.81559288041066	-10.38981290919393	-10.21584667156431	54.8586000092598	0.9574631931961751	0	0	0	42.81559288041066	-10.38981290919393	-10.21584667156431	54.8586000092598	0.9574631931961751	0	0	0	-11.45605567513443	-1.879950830238746	-1.809203084544503	80.9166995956935	2.304462635934439	14.12132878946134	34.93510576890153	113.9729492612147	0	0	84.08670680680873	-26.68744226164764	14.32344841157525	10.44823691116244	105.9753011562556	0	0
7.019999999999938	-10.87843508143487	-6.307306259397827	30.30089973778268	0	0.9399999999999999	0	42.81633343421066	-10.38935192076677	-10.21568291528757	54.85863212617014	0.9574637537420063	0	0	0	42.81633343421066	-10.38935192076677	-10.21568291528757	54.85863212617014	0.9574637537420063	0	0	0	-11.47802389932477	-1.908530685229406	-1.764157678867586	80.86436150389035	2.322926057289424	14.09584820928156	35.02226030626893	113.8930134558619	0	0	84.06695807806445	-26.41491976691781	15.03382253504707	9.962932432187557	105.706722777571	0	0
7.039999999999938	-10.94682737435727	-6.391655232836116	30.19744513731174	0	0.9399999999999999	0	42.81710795369539	-10.38887014287702	-10.21551170697474	54.85866571575139	0.9574643399907934	0	0	0	42.81710795369539	-10.38887014287702	-10.21551170697474	54.85866571575139	0.9574643399907934	0	0	0	-11.58096009737577	-1.942849588855907	-1.776833393537248	80.99832386736352	2.438176337952405	14.1302611986582	35.08815176705526	113.774727024984	0	0	84.32500494106939	-26.22714801922421	15.35397438575594	9.327909898186043	105.6156372421558	0	0
